<svg xmlns="http://www.w3.org/2000/svg" xmlns:xlink="http://www.w3.org/1999/xlink" width="1371" height="1793" viewBox="0 0 1371 1793"><g transform="scale(1) translate(0.5,12.5)"><g fill="#774400" font-family="Arial,Helvetica" font-weight="bold" pointer-events="none" text-anchor="middle" font-size="18px"><text x="750" y="30">Spring Cloud OpenFeign 源码架构全流程图</text></g><rect x="30" y="50" width="190" height="44" rx="6.6" ry="6.6" fill="#f8cecc" stroke="#b85450" pointer-events="none"/><g fill="#774400" font-family="Arial,Helvetica" font-weight="bold" pointer-events="none" text-anchor="middle" font-size="12px"><text x="125" y="77">@EnableFeignClients</text></g><rect x="30" y="102" width="190" height="36" rx="5.4" ry="5.4" fill="#fce8e8" stroke="#b85450" pointer-events="none"/><g fill="#774400" font-family="Arial,Helvetica" pointer-events="none" font-size="9px"><text x="32" y="118">启动Feign客户端自动注册</text><text x="32" y="129">basePackages / clients 指定扫描范围</text></g><rect x="540" y="40" width="240" height="44" fill="#dae8fc" stroke="#6c8ebf" pointer-events="none"/><g fill="#774400" font-family="Arial,Helvetica" font-weight="bold" font-style="italic" pointer-events="none" text-anchor="middle" font-size="10px"><text x="660" y="60">&lt;&lt;interface&gt;&gt;</text><text x="660" y="72">ImportBeanDefinitionRegistrar</text></g><rect x="300" y="50" width="210" height="44" fill="#f8cecc" stroke="#b85450" pointer-events="none"/><g fill="#774400" font-family="Arial,Helvetica" font-weight="bold" pointer-events="none" text-anchor="middle" font-size="12px"><text x="405" y="77">FeignClientsRegistrar</text></g><path d="M 510 72 L 525 72 L 525 62 L 537.76 62" fill="none" stroke="#6482b9" stroke-miterlimit="10" stroke-dasharray="3 3" pointer-events="none"/><path d="M 531.88 65.5 L 538.88 62 L 531.88 58.5" fill="none" stroke="#6482b9" stroke-miterlimit="10" pointer-events="none"/><g fill="#446299" font-family="Arial,Helvetica" pointer-events="none" text-anchor="middle" font-size="9px"><text x="525" y="70.5">implements</text></g><path d="M 220 72 L 293.63 72" fill="none" stroke="#6482b9" stroke-miterlimit="10" pointer-events="none"/><path d="M 298.88 72 L 291.88 75.5 L 293.63 72 L 291.88 68.5 Z" fill="#6482b9" stroke="#6482b9" stroke-miterlimit="10" pointer-events="none"/><g fill="#446299" font-family="Arial,Helvetica" font-weight="bold" pointer-events="none" text-anchor="middle" font-size="10px"><text x="260" y="76">@Import</text></g><rect x="1080" y="50" width="160" height="44" rx="6.6" ry="6.6" fill="#f8cecc" stroke="#b85450" pointer-events="none"/><g fill="#774400" font-family="Arial,Helvetica" font-weight="bold" pointer-events="none" text-anchor="middle" font-size="13px"><text x="1160" y="77.5">@FeignClient</text></g><rect x="1050" y="120" width="290" height="220" fill="#fff2cc" stroke="#d6b656" pointer-events="none"/><g fill="#774400" font-family="Arial,Helvetica" pointer-events="none" font-size="10px"><text x="1052" y="168">&lt;b&gt;@FeignClient 注解属性&lt;/b&gt;</text><text x="1052" y="180">─────────────────────</text><text x="1052" y="192">name/value   →  服务名 (Ribbon/服务发现)</text><text x="1052" y="204">contextId    →  多实例时区分 Context</text><text x="1052" y="216">url          →  指定直连地址 (可选)</text><text x="1052" y="228">path         →  请求路径前缀</text><text x="1052" y="240">configuration→  自定义配置类数组</text><text x="1052" y="252">fallback     →  降级实现类</text><text x="1052" y="264">fallbackFactory → 降级工厂类</text><text x="1052" y="276">qualifier    →  Bean 别名</text><text x="1052" y="288">primary      →  是否为主 Bean (默认 true)</text><text x="1052" y="300">decode404    →  404 是否 decode 而非抛异常</text></g><path d="M 1160 94 L 1160 107 L 1195 107 L 1195 113.63" fill="none" stroke="#6482b9" stroke-miterlimit="10" pointer-events="none"/><path d="M 1195 118.88 L 1191.5 111.88 L 1195 113.63 L 1198.5 111.88 Z" fill="#6482b9" stroke="#6482b9" stroke-miterlimit="10" pointer-events="none"/><rect x="130" y="155" width="220" height="36" fill="#fff2cc" stroke="#d6b656" pointer-events="none"/><g fill="#774400" font-family="Arial,Helvetica" font-weight="bold" pointer-events="none" text-anchor="middle" font-size="10px"><text x="240" y="177">registerDefaultConfiguration()</text></g><rect x="400" y="155" width="200" height="36" fill="#fff2cc" stroke="#d6b656" pointer-events="none"/><g fill="#774400" font-family="Arial,Helvetica" font-weight="bold" pointer-events="none" text-anchor="middle" font-size="10px"><text x="500" y="177">registerFeignClients()</text></g><path d="M 405 94 L 405 124.5 L 240 124.5 L 240 148.63" fill="none" stroke="#6482b9" stroke-miterlimit="10" pointer-events="none"/><path d="M 240 153.88 L 236.5 146.88 L 240 148.63 L 243.5 146.88 Z" fill="#6482b9" stroke="#6482b9" stroke-miterlimit="10" pointer-events="none"/><path d="M 405 94 L 405 124.5 L 500 124.5 L 500 148.63" fill="none" stroke="#6482b9" stroke-miterlimit="10" pointer-events="none"/><path d="M 500 153.88 L 496.5 146.88 L 500 148.63 L 503.5 146.88 Z" fill="#6482b9" stroke="#6482b9" stroke-miterlimit="10" pointer-events="none"/><rect x="40" y="250" width="200" height="46" fill="#f8cecc" stroke="#b85450" pointer-events="none"/><g fill="#774400" font-family="Arial,Helvetica" pointer-events="none" text-anchor="middle" font-size="10px"><text x="140" y="271">FeignClientSpecification</text><text x="140" y="283">(defaultConfiguration)</text></g><path d="M 240 191 L 240 220.5 L 140 220.5 L 140 243.63" fill="none" stroke="#6482b9" stroke-miterlimit="10" pointer-events="none"/><path d="M 140 248.88 L 136.5 241.88 L 140 243.63 L 143.5 241.88 Z" fill="#6482b9" stroke="#6482b9" stroke-miterlimit="10" pointer-events="none"/><g fill="#446299" font-family="Arial,Helvetica" pointer-events="none" text-anchor="middle" font-size="9px"><text x="189.5" y="224">注册默认配置</text></g><rect x="390" y="235" width="210" height="55" fill="#fff2cc" stroke="#d6b656" pointer-events="none"/><g fill="#774400" font-family="Arial,Helvetica" pointer-events="none" font-size="9px"><text x="392" y="255">扫描 basePackages 下所有</text><text x="392" y="266">@FeignClient 注解接口</text><text x="392" y="277">逐个调用 registerFeignClient()</text></g><path d="M 500 191 L 500 213 L 495 213 L 495 228.63" fill="none" stroke="#6482b9" stroke-miterlimit="10" pointer-events="none"/><path d="M 495 233.88 L 491.5 226.88 L 495 228.63 L 498.5 226.88 Z" fill="#6482b9" stroke="#6482b9" stroke-miterlimit="10" pointer-events="none"/><rect x="640" y="130" width="390" height="320" fill="#d5e8d4" stroke="#82b366" pointer-events="none"/><g fill="#774400" font-family="Arial,Helvetica" font-weight="bold" pointer-events="none" text-anchor="middle" font-size="11px"><text x="835" y="294.5">FeignClientFactoryBean  BeanDefinition  (注册到 BeanDefinitionRegistry)</text></g><rect x="648" y="166" width="374" height="24" fill="#6c8ebf" stroke="#4a6a9f" pointer-events="none"/><g fill="#ffffff" font-family="Arial,Helvetica" pointer-events="none" text-anchor="middle" font-size="10px"><text x="835" y="182">实现接口 (FactoryBean / InitializingBean / ApplicationContextAware)</text></g><rect x="648" y="196" width="374" height="22" fill="#82b366" stroke="#6d9b3a" pointer-events="none"/><g fill="#ffffff" font-family="Arial,Helvetica" pointer-events="none" text-anchor="middle" font-size="10px"><text x="835" y="211">主要字段</text></g><rect x="648" y="220" width="374" height="22" fill="#eaf5ea" stroke="#c3d9c3" pointer-events="none"/><g fill="#774400" font-family="Arial,Helvetica" pointer-events="none" font-size="10px"><text x="650" y="235">String name / contextId</text></g><rect x="648" y="242" width="374" height="22" fill="#ffffff" stroke="#c3d9c3" pointer-events="none"/><g fill="#774400" font-family="Arial,Helvetica" pointer-events="none" font-size="10px"><text x="650" y="257">Class&lt;?&gt; type    (接口 Class 类型)</text></g><rect x="648" y="264" width="374" height="22" fill="#eaf5ea" stroke="#c3d9c3" pointer-events="none"/><g fill="#774400" font-family="Arial,Helvetica" pointer-events="none" font-size="10px"><text x="650" y="279">String url / path</text></g><rect x="648" y="286" width="374" height="22" fill="#ffffff" stroke="#c3d9c3" pointer-events="none"/><g fill="#774400" font-family="Arial,Helvetica" pointer-events="none" font-size="10px"><text x="650" y="301">Class&lt;?&gt;[] configuration</text></g><rect x="648" y="308" width="374" height="22" fill="#eaf5ea" stroke="#c3d9c3" pointer-events="none"/><g fill="#774400" font-family="Arial,Helvetica" pointer-events="none" font-size="10px"><text x="650" y="323">Class&lt;?&gt; fallback / fallbackFactory</text></g><rect x="648" y="330" width="374" height="22" fill="#ffffff" stroke="#c3d9c3" pointer-events="none"/><g fill="#774400" font-family="Arial,Helvetica" pointer-events="none" font-size="10px"><text x="650" y="345">boolean decode404 / primary</text></g><rect x="648" y="352" width="374" height="22" fill="#eaf5ea" stroke="#c3d9c3" pointer-events="none"/><g fill="#774400" font-family="Arial,Helvetica" pointer-events="none" font-size="10px"><text x="650" y="367">FeignContext context    (子 ApplicationContext)</text></g><rect x="648" y="380" width="374" height="22" fill="#82b366" stroke="#6d9b3a" pointer-events="none"/><g fill="#ffffff" font-family="Arial,Helvetica" pointer-events="none" text-anchor="middle" font-size="10px"><text x="835" y="395">核心方法</text></g><rect x="648" y="404" width="374" height="24" fill="#ffe6cc" stroke="#c3d9c3" pointer-events="none"/><g fill="#774400" font-family="Arial,Helvetica" pointer-events="none" font-size="10px"><text x="650" y="420">getObject()   →  创建 Feign JDK 动态代理实例</text></g><path d="M 600 262.5 L 620 262.5 L 620 290 L 633.63 290" fill="none" stroke="#6482b9" stroke-miterlimit="10" pointer-events="none"/><path d="M 638.88 290 L 631.88 293.5 L 633.63 290 L 631.88 286.5 Z" fill="#6482b9" stroke="#6482b9" stroke-miterlimit="10" pointer-events="none"/><g fill="#446299" font-family="Arial,Helvetica" pointer-events="none" text-anchor="middle" font-size="9px"><text x="620" y="280">注册 BeanDefinition</text></g><path d="M 1080 72 L 835 72 L 835 123.63" fill="none" stroke="#6482b9" stroke-miterlimit="10" pointer-events="none"/><path d="M 835 128.88 L 831.5 121.88 L 835 123.63 L 838.5 121.88 Z" fill="#6482b9" stroke="#6482b9" stroke-miterlimit="10" pointer-events="none"/><g fill="#446299" font-family="Arial,Helvetica" pointer-events="none" text-anchor="middle" font-size="9px"><text x="928" y="75.5">属性映射</text></g><rect x="40" y="360" width="160" height="44" fill="#f8cecc" stroke="#b85450" pointer-events="none"/><g fill="#774400" font-family="Arial,Helvetica" font-weight="bold" pointer-events="none" text-anchor="middle" font-size="12px"><text x="120" y="387">FeignContext</text></g><rect x="220" y="365" width="270" height="34" fill="#dae8fc" stroke="#6c8ebf" pointer-events="none"/><g fill="#774400" font-family="Arial,Helvetica" font-weight="bold" font-style="italic" pointer-events="none" text-anchor="middle" font-size="10px"><text x="355" y="386">NamedContextFactory&lt;FeignClientSpecification&gt;</text></g><path d="M 200 382 L 217.76 382" fill="none" stroke="#6482b9" stroke-miterlimit="10" stroke-dasharray="3 3" pointer-events="none"/><path d="M 211.88 385.5 L 218.88 382 L 211.88 378.5" fill="none" stroke="#6482b9" stroke-miterlimit="10" pointer-events="none"/><g fill="#446299" font-family="Arial,Helvetica" pointer-events="none" text-anchor="middle" font-size="9px"><text x="210" y="385.5">extends</text></g><path d="M 140 296 L 140 328 L 120 328 L 120 353.63" fill="none" stroke="#6482b9" stroke-miterlimit="10" pointer-events="none"/><path d="M 120 358.88 L 116.5 351.88 L 120 353.63 L 123.5 351.88 Z" fill="#6482b9" stroke="#6482b9" stroke-miterlimit="10" pointer-events="none"/><rect x="20" y="420" width="300" height="68" fill="#e1d5e7" stroke="#9673a6" pointer-events="none"/><g fill="#774400" font-family="Arial,Helvetica" pointer-events="none" font-size="9px"><text x="22" y="441">• 为每个 FeignClient 维护独立子 ApplicationContext</text><text x="22" y="452">• 按需创建并缓存子 Context (懒加载)</text><text x="22" y="463">• 子 Context 优先使用 @FeignClient.configuration</text><text x="22" y="474">  再 fallback 到 FeignClientsConfiguration 默认配置</text></g><path d="M 120 404 L 120 414 L 170 414 L 170 413.63" fill="none" stroke="#6482b9" stroke-miterlimit="10" pointer-events="none"/><path d="M 170 418.88 L 166.5 411.88 L 170 413.63 L 173.5 411.88 Z" fill="#6482b9" stroke="#6482b9" stroke-miterlimit="10" pointer-events="none"/><rect x="1080" y="360" width="220" height="40" fill="#f8cecc" stroke="#b85450" pointer-events="none"/><g fill="#774400" font-family="Arial,Helvetica" font-weight="bold" pointer-events="none" text-anchor="middle" font-size="10px"><text x="1190" y="384">FeignAutoConfiguration</text></g><rect x="1070" y="420" width="260" height="60" fill="#f8cecc" stroke="#b85450" pointer-events="none"/><g fill="#774400" font-family="Arial,Helvetica" pointer-events="none" font-size="10px"><text x="1072" y="442">FeignClientsConfiguration</text><text x="1072" y="454">(默认 SpringEncoder / SpringDecoder</text><text x="1072" y="466"> SpringMvcContract / Slf4jLogger)</text></g><path d="M 1190 400 L 1190 410 L 1200 410 L 1200 413.63" fill="none" stroke="#6482b9" stroke-miterlimit="10" pointer-events="none"/><path d="M 1200 418.88 L 1196.5 411.88 L 1200 413.63 L 1203.5 411.88 Z" fill="#6482b9" stroke="#6482b9" stroke-miterlimit="10" pointer-events="none"/><g fill="#666666" font-family="Arial,Helvetica" font-weight="bold" pointer-events="none" text-anchor="middle" font-size="12px"><text x="550" y="527">──────────────────  运行时阶段  ──────────────────</text></g><rect x="480" y="545" width="340" height="46" fill="#fff2cc" stroke="#d6b656" pointer-events="none"/><g fill="#774400" font-family="Arial,Helvetica" font-weight="bold" pointer-events="none" text-anchor="middle" font-size="10px"><text x="650" y="566">FeignClientFactoryBean.getObject()</text><text x="650" y="578">Spring 容器初始化 / 首次依赖注入时触发</text></g><path d="M 835 450 L 835 497.5 L 650 497.5 L 650 538.63" fill="none" stroke="#6482b9" stroke-miterlimit="10" pointer-events="none"/><path d="M 650 543.88 L 646.5 536.88 L 650 538.63 L 653.5 536.88 Z" fill="#6482b9" stroke="#6482b9" stroke-miterlimit="10" pointer-events="none"/><g fill="#446299" font-family="Arial,Helvetica" pointer-events="none" text-anchor="middle" font-size="9px"><text x="742.5" y="501">触发创建</text></g><path d="M 200 382 L 650 382 L 650 538.63" fill="none" stroke="#6482b9" stroke-miterlimit="10" pointer-events="none"/><path d="M 650 543.88 L 646.5 536.88 L 650 538.63 L 653.5 536.88 Z" fill="#6482b9" stroke="#6482b9" stroke-miterlimit="10" pointer-events="none"/><g fill="#446299" font-family="Arial,Helvetica" pointer-events="none" text-anchor="middle" font-size="9px"><text x="507" y="385.5">提供子 Context</text></g><rect x="350" y="640" width="600" height="185" fill="#fff2cc" stroke="#d6b656" pointer-events="none"/><g fill="#774400" font-family="Arial,Helvetica" font-weight="bold" pointer-events="none" text-anchor="middle" font-size="12px"><text x="650" y="737.5">Feign.Builder</text></g><rect x="360" y="676" width="110" height="28" rx="4.2" ry="4.2" fill="#ffe6cc" stroke="#d79b00" pointer-events="none"/><g fill="#774400" font-family="Arial,Helvetica" pointer-events="none" text-anchor="middle" font-size="10px"><text x="415" y="694">Encoder</text></g><rect x="485" y="676" width="110" height="28" rx="4.2" ry="4.2" fill="#ffe6cc" stroke="#d79b00" pointer-events="none"/><g fill="#774400" font-family="Arial,Helvetica" pointer-events="none" text-anchor="middle" font-size="10px"><text x="540" y="694">Decoder</text></g><rect x="610" y="676" width="110" height="28" rx="4.2" ry="4.2" fill="#ffe6cc" stroke="#d79b00" pointer-events="none"/><g fill="#774400" font-family="Arial,Helvetica" pointer-events="none" text-anchor="middle" font-size="10px"><text x="665" y="694">Contract</text></g><rect x="735" y="676" width="110" height="28" rx="4.2" ry="4.2" fill="#ffe6cc" stroke="#d79b00" pointer-events="none"/><g fill="#774400" font-family="Arial,Helvetica" pointer-events="none" text-anchor="middle" font-size="10px"><text x="790" y="694">Logger / Level</text></g><rect x="860" y="676" width="80" height="28" rx="4.2" ry="4.2" fill="#ffe6cc" stroke="#d79b00" pointer-events="none"/><g fill="#774400" font-family="Arial,Helvetica" pointer-events="none" text-anchor="middle" font-size="10px"><text x="900" y="694">Client</text></g><rect x="360" y="718" width="145" height="28" rx="4.2" ry="4.2" fill="#ffe6cc" stroke="#d79b00" pointer-events="none"/><g fill="#774400" font-family="Arial,Helvetica" pointer-events="none" text-anchor="middle" font-size="10px"><text x="432.5" y="736">RequestInterceptor</text></g><rect x="520" y="718" width="100" height="28" rx="4.2" ry="4.2" fill="#ffe6cc" stroke="#d79b00" pointer-events="none"/><g fill="#774400" font-family="Arial,Helvetica" pointer-events="none" text-anchor="middle" font-size="10px"><text x="570" y="736">Retryer</text></g><rect x="635" y="718" width="110" height="28" rx="4.2" ry="4.2" fill="#ffe6cc" stroke="#d79b00" pointer-events="none"/><g fill="#774400" font-family="Arial,Helvetica" pointer-events="none" text-anchor="middle" font-size="10px"><text x="690" y="736">ErrorDecoder</text></g><rect x="760" y="718" width="110" height="28" rx="4.2" ry="4.2" fill="#ffe6cc" stroke="#d79b00" pointer-events="none"/><g fill="#774400" font-family="Arial,Helvetica" pointer-events="none" text-anchor="middle" font-size="10px"><text x="815" y="736">Options (超时)</text></g><rect x="360" y="760" width="175" height="28" rx="4.2" ry="4.2" fill="#ffe6cc" stroke="#d79b00" pointer-events="none"/><g fill="#774400" font-family="Arial,Helvetica" pointer-events="none" text-anchor="middle" font-size="10px"><text x="447.5" y="778">InvocationHandlerFactory</text></g><rect x="550" y="760" width="140" height="28" rx="4.2" ry="4.2" fill="#ffe6cc" stroke="#d79b00" pointer-events="none"/><g fill="#774400" font-family="Arial,Helvetica" pointer-events="none" text-anchor="middle" font-size="10px"><text x="620" y="778">QueryMapEncoder</text></g><rect x="705" y="760" width="175" height="28" rx="4.2" ry="4.2" fill="#ffe6cc" stroke="#d79b00" pointer-events="none"/><g fill="#774400" font-family="Arial,Helvetica" pointer-events="none" text-anchor="middle" font-size="10px"><text x="792.5" y="778">Capability (链路追踪等)</text></g><g fill="#774400" font-family="Arial,Helvetica" font-style="italic" pointer-events="none" text-anchor="middle" font-size="9px"><text x="650" y="807.5">从 FeignContext (子 ApplicationContext) 中获取以上各组件</text></g><path d="M 650 591 L 650 633.63" fill="none" stroke="#6482b9" stroke-miterlimit="10" pointer-events="none"/><path d="M 650 638.88 L 646.5 631.88 L 650 633.63 L 653.5 631.88 Z" fill="#6482b9" stroke="#6482b9" stroke-miterlimit="10" pointer-events="none"/><path d="M 1070 450 L 650 450 L 650 633.63" fill="none" stroke="#6482b9" stroke-miterlimit="10" pointer-events="none"/><path d="M 650 638.88 L 646.5 631.88 L 650 633.63 L 653.5 631.88 Z" fill="#6482b9" stroke="#6482b9" stroke-miterlimit="10" pointer-events="none"/><g fill="#446299" font-family="Arial,Helvetica" pointer-events="none" text-anchor="middle" font-size="9px"><text x="765" y="453.5">注入默认组件</text></g><rect x="565" y="876" width="160" height="64" fill="#fff2cc" stroke="#d6b656" pointer-events="none"/><g fill="#774400" font-family="Arial,Helvetica" pointer-events="none" text-anchor="middle" font-size="10px"><text x="645" y="912">url 是否为空?</text></g><path d="M 650 825 L 650 850.5 L 645 850.5 L 645 869.63" fill="none" stroke="#6482b9" stroke-miterlimit="10" pointer-events="none"/><path d="M 645 874.88 L 641.5 867.88 L 645 869.63 L 648.5 867.88 Z" fill="#6482b9" stroke="#6482b9" stroke-miterlimit="10" pointer-events="none"/><rect x="300" y="1000" width="170" height="44" fill="#d5e8d4" stroke="#82b366" pointer-events="none"/><g fill="#774400" font-family="Arial,Helvetica" font-weight="bold" pointer-events="none" text-anchor="middle" font-size="10px"><text x="385" y="1020">loadBalance()</text><text x="385" y="1032">负载均衡模式</text></g><path d="M 565 908 L 385 908 L 385 993.63" fill="none" stroke="#6482b9" stroke-miterlimit="10" pointer-events="none"/><path d="M 385 998.88 L 381.5 991.88 L 385 993.63 L 388.5 991.88 Z" fill="#6482b9" stroke="#6482b9" stroke-miterlimit="10" pointer-events="none"/><g fill="#446299" font-family="Arial,Helvetica" pointer-events="none" text-anchor="middle" font-size="9px"><text x="429" y="911.5">url 为空 (服务名)</text></g><rect x="840" y="1000" width="170" height="44" fill="#f8cecc" stroke="#b85450" pointer-events="none"/><g fill="#774400" font-family="Arial,Helvetica" font-weight="bold" pointer-events="none" text-anchor="middle" font-size="10px"><text x="925" y="1020">target()</text><text x="925" y="1032">直连模式</text></g><path d="M 725 908 L 925 908 L 925 993.63" fill="none" stroke="#6482b9" stroke-miterlimit="10" pointer-events="none"/><path d="M 925 998.88 L 921.5 991.88 L 925 993.63 L 928.5 991.88 Z" fill="#6482b9" stroke="#6482b9" stroke-miterlimit="10" pointer-events="none"/><g fill="#446299" font-family="Arial,Helvetica" pointer-events="none" text-anchor="middle" font-size="9px"><text x="871" y="911.5">url 非空 (直连)</text></g><rect x="30" y="990" width="250" height="46" fill="#f8cecc" stroke="#b85450" pointer-events="none"/><g fill="#774400" font-family="Arial,Helvetica" pointer-events="none" text-anchor="middle" font-size="10px"><text x="155" y="1011">FeignLoadBalancerAutoConfiguration</text><text x="155" y="1023">/ FeignRibbonClientAutoConfiguration</text></g><rect x="180" y="1105" width="240" height="60" fill="#f8cecc" stroke="#b85450" pointer-events="none"/><g fill="#774400" font-family="Arial,Helvetica" font-weight="bold" pointer-events="none" text-anchor="middle" font-size="10px"><text x="300" y="1127">LoadBalancerFeignClient</text><text x="300" y="1139">(Spring Cloud LoadBalancer)</text><text x="300" y="1151">wrap 底层 okhttp / httpclient</text></g><path d="M 385 1044 L 385 1074.5 L 300 1074.5 L 300 1098.63" fill="none" stroke="#6482b9" stroke-miterlimit="10" pointer-events="none"/><path d="M 300 1103.88 L 296.5 1096.88 L 300 1098.63 L 303.5 1096.88 Z" fill="#6482b9" stroke="#6482b9" stroke-miterlimit="10" pointer-events="none"/><path d="M 155 1036 L 155 1070.5 L 300 1070.5 L 300 1098.63" fill="none" stroke="#6482b9" stroke-miterlimit="10" pointer-events="none"/><path d="M 300 1103.88 L 296.5 1096.88 L 300 1098.63 L 303.5 1096.88 Z" fill="#6482b9" stroke="#6482b9" stroke-miterlimit="10" pointer-events="none"/><g fill="#446299" font-family="Arial,Helvetica" pointer-events="none" text-anchor="middle" font-size="9px"><text x="227.5" y="1074">注入</text></g><rect x="860" y="1105" width="230" height="60" fill="#f8cecc" stroke="#b85450" pointer-events="none"/><g fill="#774400" font-family="Arial,Helvetica" font-weight="bold" pointer-events="none" text-anchor="middle" font-size="10px"><text x="975" y="1127">Client.Default</text><text x="975" y="1139">(HttpURLConnection)</text><text x="975" y="1151">or OkHttp / ApacheHttpClient</text></g><path d="M 925 1044 L 925 1074.5 L 975 1074.5 L 975 1098.63" fill="none" stroke="#6482b9" stroke-miterlimit="10" pointer-events="none"/><path d="M 975 1103.88 L 971.5 1096.88 L 975 1098.63 L 978.5 1096.88 Z" fill="#6482b9" stroke="#6482b9" stroke-miterlimit="10" pointer-events="none"/><rect x="1120" y="1105" width="230" height="45" fill="#ffe6cc" stroke="#d79b00" pointer-events="none"/><g fill="#774400" font-family="Arial,Helvetica" pointer-events="none" text-anchor="middle" font-size="9px"><text x="1235" y="1125.5">OkHttpClient / ApacheHttpClient</text><text x="1235" y="1136.5">(引入对应依赖时自动替换)</text></g><path d="M 1090 1135 L 1105 1135 L 1105 1127.5 L 1113.63 1127.5" fill="none" stroke="#6482b9" stroke-miterlimit="10" stroke-dasharray="3 3" pointer-events="none"/><path d="M 1118.88 1127.5 L 1111.88 1131 L 1113.63 1127.5 L 1111.88 1124 Z" fill="#6482b9" stroke="#6482b9" stroke-miterlimit="10" pointer-events="none"/><rect x="450" y="1230" width="380" height="46" fill="#dae8fc" stroke="#6c8ebf" pointer-events="none"/><g fill="#774400" font-family="Arial,Helvetica" pointer-events="none" text-anchor="middle" font-size="10px"><text x="640" y="1251">HardCodedTarget&lt;T&gt;</text><text x="640" y="1263">封装 serviceId + url + type (接口Class)</text></g><path d="M 420 1135 L 640 1135 L 640 1223.63" fill="none" stroke="#6482b9" stroke-miterlimit="10" pointer-events="none"/><path d="M 640 1228.88 L 636.5 1221.88 L 640 1223.63 L 643.5 1221.88 Z" fill="#6482b9" stroke="#6482b9" stroke-miterlimit="10" pointer-events="none"/><path d="M 860 1135 L 640 1135 L 640 1223.63" fill="none" stroke="#6482b9" stroke-miterlimit="10" pointer-events="none"/><path d="M 640 1228.88 L 636.5 1221.88 L 640 1223.63 L 643.5 1221.88 Z" fill="#6482b9" stroke="#6482b9" stroke-miterlimit="10" pointer-events="none"/><rect x="400" y="1335" width="480" height="46" fill="#dae8fc" stroke="#6c8ebf" pointer-events="none"/><g fill="#774400" font-family="Arial,Helvetica" font-weight="bold" pointer-events="none" text-anchor="middle" font-size="10px"><text x="640" y="1356">ReflectiveFeign.newInstance(target)</text><text x="640" y="1368">JDK 动态代理 → 生成接口实现代理对象并注入 Spring 容器</text></g><path d="M 640 1276 L 640 1328.63" fill="none" stroke="#6482b9" stroke-miterlimit="10" pointer-events="none"/><path d="M 640 1333.88 L 636.5 1326.88 L 640 1328.63 L 643.5 1326.88 Z" fill="#6482b9" stroke="#6482b9" stroke-miterlimit="10" pointer-events="none"/><g fill="#446299" font-family="Arial,Helvetica" pointer-events="none" text-anchor="middle" font-size="9px"><text x="640" y="1309.5">build().newInstance()</text></g><rect x="930" y="1340" width="180" height="44" fill="#dae8fc" stroke="#6c8ebf" pointer-events="none"/><g fill="#774400" font-family="Arial,Helvetica" pointer-events="none" text-anchor="middle" font-size="10px"><text x="1020" y="1360">InvocationHandler</text><text x="1020" y="1372">FeignInvocationHandler</text></g><path d="M 880 1358 L 905 1358 L 905 1362 L 923.63 1362" fill="none" stroke="#6482b9" stroke-miterlimit="10" stroke-dasharray="3 3" pointer-events="none"/><path d="M 928.88 1362 L 921.88 1365.5 L 923.63 1362 L 921.88 1358.5 Z" fill="#6482b9" stroke="#6482b9" stroke-miterlimit="10" pointer-events="none"/><g fill="#446299" font-family="Arial,Helvetica" pointer-events="none" text-anchor="middle" font-size="9px"><text x="905" y="1363.5">dispatch 分发</text></g><rect x="370" y="1435" width="540" height="162" fill="#dae8fc" stroke="#6c8ebf" pointer-events="none"/><g fill="#774400" font-family="Arial,Helvetica" font-weight="bold" pointer-events="none" text-anchor="middle" font-size="11px"><text x="640" y="1520.5">SynchronousMethodHandler</text></g><g fill="#774400" font-family="Arial,Helvetica" pointer-events="none" font-size="10px"><text x="382" y="1484">① 构建 RequestTemplate  (URL / Header / Body 模板)</text></g><g fill="#774400" font-family="Arial,Helvetica" pointer-events="none" font-size="10px"><text x="382" y="1507">② 遍历 List&lt;RequestInterceptor&gt;.apply(template)</text></g><g fill="#774400" font-family="Arial,Helvetica" pointer-events="none" font-size="10px"><text x="382" y="1530">③ Encoder.encode()  序列化请求体</text></g><g fill="#774400" font-family="Arial,Helvetica" pointer-events="none" font-size="10px"><text x="382" y="1553">④ Client.execute(request, options)  发送 HTTP 请求</text></g><g fill="#774400" font-family="Arial,Helvetica" pointer-events="none" font-size="10px"><text x="382" y="1576">⑤ Decoder.decode(response) / ErrorDecoder 处理非 2xx</text></g><path d="M 640 1381 L 640 1428.63" fill="none" stroke="#6482b9" stroke-miterlimit="10" pointer-events="none"/><path d="M 640 1433.88 L 636.5 1426.88 L 640 1428.63 L 643.5 1426.88 Z" fill="#6482b9" stroke="#6482b9" stroke-miterlimit="10" pointer-events="none"/><g fill="#446299" font-family="Arial,Helvetica" pointer-events="none" text-anchor="middle" font-size="9px"><text x="640" y="1411.5">方法调用时拦截</text></g><rect x="960" y="1460" width="210" height="44" fill="#ffe6cc" stroke="#d79b00" pointer-events="none"/><g fill="#774400" font-family="Arial,Helvetica" pointer-events="none" text-anchor="middle" font-size="9px"><text x="1065" y="1480">Retryer.continueOrPropagate()</text><text x="1065" y="1491">异常时按策略重试</text></g><path d="M 910 1516 L 935 1516 L 935 1482 L 953.63 1482" fill="none" stroke="#6482b9" stroke-miterlimit="10" stroke-dasharray="3 3" pointer-events="none"/><path d="M 958.88 1482 L 951.88 1485.5 L 953.63 1482 L 951.88 1478.5 Z" fill="#6482b9" stroke="#6482b9" stroke-miterlimit="10" pointer-events="none"/><g fill="#446299" font-family="Arial,Helvetica" pointer-events="none" text-anchor="middle" font-size="9px"><text x="935" y="1502.5">IOException</text></g><rect x="370" y="1650" width="320" height="44" rx="6.6" ry="6.6" fill="#d5e8d4" stroke="#82b366" pointer-events="none"/><g fill="#774400" font-family="Arial,Helvetica" font-weight="bold" pointer-events="none" text-anchor="middle" font-size="11px"><text x="530" y="1676.5">✓  返回 Java 对象 (Decoder 解码)</text></g><path d="M 640 1597 L 640 1623.5 L 530 1623.5 L 530 1643.63" fill="none" stroke="#6482b9" stroke-miterlimit="10" pointer-events="none"/><path d="M 530 1648.88 L 526.5 1641.88 L 530 1643.63 L 533.5 1641.88 Z" fill="#6482b9" stroke="#6482b9" stroke-miterlimit="10" pointer-events="none"/><g fill="#446299" font-family="Arial,Helvetica" pointer-events="none" text-anchor="middle" font-size="9px"><text x="584.5" y="1627">2xx 成功</text></g><rect x="760" y="1650" width="220" height="50" fill="#ffe6cc" stroke="#d79b00" pointer-events="none"/><g fill="#774400" font-family="Arial,Helvetica" pointer-events="none" text-anchor="middle" font-size="10px"><text x="870" y="1673">Fallback / FallbackFactory</text><text x="870" y="1685">(Hystrix / Sentinel 降级)</text></g><path d="M 640 1597 L 640 1623.5 L 870 1623.5 L 870 1643.63" fill="none" stroke="#d79b00" stroke-miterlimit="10" stroke-dasharray="3 3" pointer-events="none"/><path d="M 870 1648.88 L 866.5 1641.88 L 870 1643.63 L 873.5 1641.88 Z" fill="#d79b00" stroke="#d79b00" stroke-miterlimit="10" pointer-events="none"/><g fill="#446299" font-family="Arial,Helvetica" pointer-events="none" text-anchor="middle" font-size="9px"><text x="755.5" y="1627">非 2xx / 异常</text></g><rect x="760" y="1720" width="220" height="40" fill="#f8cecc" stroke="#b85450" pointer-events="none"/><g fill="#774400" font-family="Arial,Helvetica" pointer-events="none" text-anchor="middle" font-size="10px"><text x="870" y="1744">FeignException (抛出给调用方)</text></g><path d="M 870 1700 L 870 1713.63" fill="none" stroke="#6482b9" stroke-miterlimit="10" pointer-events="none"/><path d="M 870 1718.88 L 866.5 1711.88 L 870 1713.63 L 873.5 1711.88 Z" fill="#6482b9" stroke="#6482b9" stroke-miterlimit="10" pointer-events="none"/><g fill="#446299" font-family="Arial,Helvetica" pointer-events="none" text-anchor="middle" font-size="9px"><text x="870" y="1713.5">无降级</text></g></g></svg>